<?xml version="1.0" encoding="utf-8"?>
<!-- Svg Vector Icons : http://www.onlinewebfonts.com/icon -->
<!DOCTYPE svg PUBLIC "-//W3C//DTD SVG 1.1//EN" "http://www.w3.org/Graphics/SVG/1.1/DTD/svg11.dtd">
<svg version="1.1" xmlns="http://www.w3.org/2000/svg" xmlns:xlink="http://www.w3.org/1999/xlink" x="0px" y="0px" viewBox="0 0 256 256" enable-background="new 0 0 256 256" xml:space="preserve">
<metadata> Svg Vector Icons : http://www.onlinewebfonts.com/icon </metadata>
<g><g><path fill="#000000" d="M105.1,180.7c-6.7,2.6-20.1,6.4-35.7,6.4c-17.5,0-31.9-4.5-43.3-15.3c-9.9-9.6-16.1-25.1-16.1-43.1c0-34.5,23.9-59.7,62.7-59.7c13.4,0,24,2.9,29,5.3l-3.8,12.2c-6.2-2.9-13.9-5-25.6-5C44.1,81.5,25.8,99,25.8,128c0,29.4,17.5,46.7,44.6,46.7c9.8,0,16.5-1.4,19.9-3.1v-34.5H67v-12h38.1V180.7L105.1,180.7z"/><path fill="#000000" d="M127.2,125.2c0-8.8-0.3-15.6-0.7-22.5h13.2l0.7,13.4h0.5c4.6-7.9,12.4-15.3,26.3-15.3c11.2,0,19.8,6.9,23.3,16.6h0.3c2.6-4.8,6-8.2,9.4-10.8c5-3.8,10.3-5.8,18.2-5.8c11.2,0,27.5,7.2,27.5,36.1v48.9h-14.8v-47c0-16.1-6-25.6-18-25.6c-8.7,0-15.3,6.4-18,13.6c-0.7,2.2-1.2,5-1.2,7.6v51.5h-14.8v-49.8c0-13.4-5.8-22.8-17.3-22.8c-9.3,0-16.3,7.6-18.7,15.1c-0.9,2.2-1.2,4.8-1.2,7.4v50.1h-14.8L127.2,125.2L127.2,125.2z"/></g></g>
</svg>